<?xml version="1.0" encoding="utf-8"?>
<!-- Generator: Adobe Illustrator 27.9.0, SVG Export Plug-In . SVG Version: 6.00 Build 0)  -->
<svg version="1.1" id="Layer_1" xmlns="http://www.w3.org/2000/svg" xmlns:xlink="http://www.w3.org/1999/xlink" x="0px" y="0px"
	 viewBox="0 0 95.37 86.53" style="enable-background:new 0 0 95.37 86.53;" xml:space="preserve">
<style type="text/css">
	.st0{fill:none;stroke:#000000;stroke-miterlimit:10;}
	.st1{fill:#FFFFFF;}
	.st2{opacity:0.54;fill:#FFFFFF;}
	.st3{fill:none;stroke:#FFFFFF;stroke-linecap:round;stroke-miterlimit:10;}
	.st4{font-family:'Alef-Bold';}
	.st5{font-size:12px;}
	.st6{font-size:6px;}
</style>
<g>
	<g>
		<path class="st1" d="M22.17,43.22l1.79,6.84c0.12,0.44,0.51,0.75,0.97,0.75h18.51c0.56,0,1-0.45,1-1v-4.15l-21.33-2.34
			L22.17,43.22z"/>
		<path class="st1" d="M44.44,43.96v-5.07L41,37.88l-21.91-6.46l2.15,8.21c0.1,0.38,0.42,0.67,0.81,0.73L44.44,43.96z"/>
		<path class="st1" d="M41.96,28.17L14.41,13.53l3.45,13.19c0.08,0.32,0.32,0.58,0.64,0.69L41,35.27l3.44,1.2V32.3
			C44.44,30.57,43.49,28.98,41.96,28.17z"/>
	</g>
	<g>
		<path class="st1" d="M73.2,43.22l-1.79,6.84c-0.12,0.44-0.51,0.75-0.97,0.75H51.93c-0.56,0-1-0.45-1-1v-4.15l21.33-2.34
			L73.2,43.22z"/>
		<path class="st1" d="M50.93,43.96v-5.07l3.44-1.01l21.91-6.46l-2.15,8.21c-0.1,0.38-0.42,0.67-0.81,0.73L50.93,43.96z"/>
		<path class="st1" d="M53.41,28.17l27.55-14.64l-3.45,13.19c-0.08,0.32-0.32,0.58-0.64,0.69l-22.51,7.85l-3.44,1.2V32.3
			C50.93,30.57,51.88,28.98,53.41,28.17z"/>
	</g>
	<line class="st3" x1="47.68" y1="38.42" x2="47.68" y2="54.21"/>
	<line class="st3" x1="21.05" y1="66.84" x2="74.32" y2="66.84"/>
	<text transform="matrix(1 0 0 1 23.2199 65.2736)" class="st1 st4 st5">CINEFLY</text>
	<text transform="matrix(1 0 0 1 30.1711 72.9963)" class="st1 st4 st6">productions</text>
</g>
</svg>
