<?xml version="1.0" encoding="utf-8"?>
<!-- Generator: Adobe Illustrator 27.9.0, SVG Export Plug-In . SVG Version: 6.00 Build 0)  -->
<svg version="1.1" id="Layer_1" xmlns="http://www.w3.org/2000/svg" xmlns:xlink="http://www.w3.org/1999/xlink" x="0px" y="0px"
	 viewBox="0 0 95.37 86.53" style="enable-background:new 0 0 95.37 86.53;" xml:space="preserve">
<style type="text/css">
	.st1{fill:#000000;}
	.st2{opacity:0.54;fill:#000000;}
	.st3{fill:none;stroke:#000000;stroke-linecap:round;stroke-miterlimit:10;}
</style>
<g>
	<g>
		<path class="st1" d="M22.17,53.57l1.79,6.84c0.12,0.44,0.51,0.75,0.97,0.75h18.51c0.56,0,1-0.45,1-1v-4.15l-21.33-2.34
			L22.17,53.57z"/>
		<path class="st1" d="M44.44,54.31v-5.07L41,48.23l-21.91-6.46l2.15,8.21c0.1,0.38,0.42,0.67,0.81,0.73L44.44,54.31z"/>
		<path class="st1" d="M41.96,38.52L14.41,23.88l3.45,13.19c0.08,0.32,0.32,0.58,0.64,0.69L41,45.62l3.44,1.2v-4.17
			C44.44,40.92,43.49,39.33,41.96,38.52z"/>
	</g>
	<g>
		<path class="st1" d="M73.2,53.57l-1.79,6.84c-0.12,0.44-0.51,0.75-0.97,0.75H51.93c-0.56,0-1-0.45-1-1v-4.15l21.33-2.34
			L73.2,53.57z"/>
		<path class="st1" d="M50.93,54.31v-5.07l3.44-1.01l21.91-6.46l-2.15,8.21c-0.1,0.38-0.42,0.67-0.81,0.73L50.93,54.31z"/>
		<path class="st1" d="M53.41,38.52l27.55-14.64l-3.45,13.19c-0.08,0.32-0.32,0.58-0.64,0.69l-22.51,7.85l-3.44,1.2v-4.17
			C50.93,40.92,51.88,39.33,53.41,38.52z"/>
	</g>
	<line class="st3" x1="47.68" y1="48.78" x2="47.68" y2="64.57"/>
</g>
</svg>
